<svg version="1.0" xmlns="http://www.w3.org/2000/svg" width="1821.333" height="1024" viewBox="0 0 1366 768"><path d="M581.5 246.9c-2.2.4-5.8 1.9-8 3.3-11 7.1-15.5 18.3-12.1 30 1.4 5 2.7 6.7 13.2 16.7 6.4 6.1 14.6 13.6 18.2 16.6 13.9 11.3 14.8 12.1 58.5 49.7 9.8 8.4 22 18.7 27 22.8 5.1 4.1 13.2 11.4 18.1 16.2 4.9 4.8 9.8 9 10.8 9.4 1 .3 1.8.9 1.8 1.3 0 .5 2.2 1.8 4.9 3 10.3 4.4 24.8 2.1 32.2-5.1 2.2-2.1 4.1-3.8 4.4-3.8.3 0 3.1-2.4 6.3-5.4 12.9-12.1 20.4-18.7 33.1-29.1 7.4-6.1 18.3-15.3 24.3-20.5 6-5.2 13-11.2 15.6-13.4 2.6-2.1 8.1-6.8 12.2-10.5s9.8-8.4 12.5-10.6c7.1-5.6 17.6-14.8 26.5-23.2 6.1-5.9 7.9-8.3 9.4-12.7 2.1-6.2 1.7-14.5-1-19.9-2.3-4.5-8.2-10.5-12.9-13l-4-2.2-143.5-.1c-78.9-.1-145.3.1-147.5.5z"/></svg>