<svg width="37" height="37" viewBox="0 0 37 37" fill="none" xmlns="http://www.w3.org/2000/svg">
<path fill-rule="evenodd" clip-rule="evenodd" d="M25.0612 29.8112C25.5616 29.326 25.5651 28.5395 25.0578 28.0544L17.5569 20.8652L17.4244 20.7544C16.9174 20.3854 16.1927 20.4239 15.7324 20.8702C15.4831 21.1119 15.3558 21.4298 15.3558 21.746C15.3558 22.064 15.4831 22.3835 15.7358 22.6252L23.2367 29.8161L23.3692 29.9269C23.8762 30.296 24.6009 30.2574 25.0612 29.8112ZM25.1741 8.02985C25.5612 7.54295 25.52 6.84503 25.0613 6.40033C24.5592 5.91519 23.7424 5.91354 23.2368 6.39867L11.9425 17.2272L11.8266 17.3541C11.6509 17.575 11.5625 17.8401 11.5625 18.1064C11.5625 18.4226 11.6897 18.7406 11.9391 18.9823C12.4412 19.4691 13.258 19.4707 13.7636 18.9856L25.0579 8.15706L25.1741 8.02985Z" fill="#808080"/>
</svg>
