<?xml version="1.0" standalone="no"?>
<!DOCTYPE svg PUBLIC "-//W3C//DTD SVG 20010904//EN"
 "http://www.w3.org/TR/2001/REC-SVG-20010904/DTD/svg10.dtd">
<svg version="1.0" xmlns="http://www.w3.org/2000/svg"
 width="186.000000pt" height="186.000000pt" viewBox="0 0 186.000000 186.000000"
 preserveAspectRatio="xMidYMid meet">
<metadata>
Created by potrace 1.11, written by Peter Selinger 2001-2013
</metadata>
<g transform="translate(0.000000,186.000000) scale(0.100000,-0.100000)"
fill="#000000" stroke="none">
<path d="M800 1853 c-205 -34 -383 -124 -526 -267 -189 -189 -280 -421 -270
-690 3 -61 7 -124 11 -141 48 -231 179 -435 364 -573 160 -118 348 -179 551
-180 250 0 472 91 649 266 126 126 209 266 253 430 32 121 33 318 2 445 -68
281 -256 511 -517 631 -58 27 -152 60 -164 58 -2 -1 -17 4 -35 9 -34 11 -274
20 -318 12z"/>
</g>
</svg>
