<svg width="74" height="72" viewBox="0 0 74 72" fill="none" xmlns="http://www.w3.org/2000/svg">
<path fill-rule="evenodd" clip-rule="evenodd" d="M23.8776 12.7284C22.8768 13.6929 22.8699 15.2566 23.8844 16.2212L38.8862 30.5152L39.1512 30.7354C40.1652 31.4692 41.6146 31.3925 42.5352 30.5053C43.0339 30.0247 43.2884 29.3926 43.2884 28.7638C43.2884 28.1317 43.0339 27.4964 42.5283 27.0157L27.5265 12.7185L27.2615 12.4983C26.2475 11.7645 24.7981 11.8412 23.8776 12.7284ZM23.6518 56.035C22.8777 57.0031 22.9599 58.3908 23.8773 59.275C24.8816 60.2395 26.5152 60.2428 27.5263 59.2782L50.1149 37.7484L50.3468 37.4962C50.6983 37.057 50.875 36.5298 50.875 36.0004C50.875 35.3716 50.6205 34.7395 50.1218 34.2589C49.1176 33.291 47.484 33.2877 46.4728 34.2523L23.8842 55.7821L23.6518 56.035Z" fill="#F1A22C"/>
</svg>
