<svg width="40" height="40" fill="none" xmlns="http://www.w3.org/2000/svg"><rect x="1.086" y="1.434" width="37.367" height="37.367" rx="18.683" fill="#fff" stroke="#DBDBDB" stroke-width="1.289"/><g clip-path="url(#clip0)"><path d="M28.931 14.724a2.42 2.42 0 00-1.703-1.703c-1.512-.414-7.56-.414-7.56-.414s-6.048 0-7.56.398a2.47 2.47 0 00-1.703 1.719c-.398 1.512-.398 4.647-.398 4.647s0 3.152.398 4.648a2.42 2.42 0 001.703 1.703c1.528.413 7.56.413 7.56.413s6.049 0 7.56-.397a2.42 2.42 0 001.703-1.703c.398-1.512.398-4.648.398-4.648s.016-3.151-.398-4.663zm-11.188 7.544v-5.794l5.029 2.897-5.03 2.897z" fill="#F1A22C"/></g><defs><clipPath id="clip0"><path fill="#fff" transform="translate(10.007 12.607)" d="M0 0h19.338v13.529H0z"/></clipPath></defs></svg>