<?xml version="1.0" standalone="no"?>
<!DOCTYPE svg PUBLIC "-//W3C//DTD SVG 20010904//EN"
 "http://www.w3.org/TR/2001/REC-SVG-20010904/DTD/svg10.dtd">
<svg version="1.0" xmlns="http://www.w3.org/2000/svg"
 width="186.000000pt" height="186.000000pt" viewBox="0 0 186.000000 186.000000"
 preserveAspectRatio="xMidYMid meet">
<metadata>
Created by potrace 1.11, written by Peter Selinger 2001-2013
</metadata>
<g transform="translate(0.000000,186.000000) scale(0.100000,-0.100000)"
fill="#000000" stroke="none">
<path d="M1467 1295 c-8 -8 -22 -45 -32 -83 -16 -68 -51 -140 -62 -129 -3 3 3
29 12 57 17 51 15 80 -5 80 -6 0 -17 -15 -25 -33 -16 -38 -95 -175 -95 -166 0
4 9 37 21 74 21 70 20 95 -5 95 -10 0 -23 -26 -39 -77 -38 -121 -41 -146 -18
-174 11 -13 22 -22 24 -19 3 3 21 39 40 80 27 57 36 69 36 49 1 -34 26 -56 45
-40 8 6 19 25 26 41 l12 30 17 -32 c12 -24 23 -33 41 -33 20 0 30 11 52 55 32
63 54 164 44 203 -6 27 -38 38 -51 17 -10 -16 -25 -12 -19 5 8 19 0 19 -19 0z
m72 -82 c-18 -57 -68 -153 -79 -153 -14 0 -1 82 14 95 7 6 18 25 24 44 14 40
45 78 50 62 2 -6 -2 -28 -9 -48z"/>
<path d="M1125 1177 c-63 -26 -62 -24 -43 -44 15 -15 19 -14 49 12 39 32 46
22 24 -32 -18 -44 -96 -166 -102 -160 -2 3 6 30 18 61 16 45 18 60 9 71 -18
22 -27 18 -39 -17 -13 -37 -93 -180 -98 -175 -2 2 8 36 21 75 20 58 22 74 12
88 -12 15 -16 15 -57 -7 -24 -13 -46 -25 -48 -27 -3 -1 1 -8 7 -14 10 -10 17
-10 33 0 19 12 20 11 13 -10 -38 -121 -42 -168 -14 -193 19 -17 20 -16 44 38
13 30 27 65 31 78 7 21 8 21 21 -9 16 -40 39 -41 59 -2 21 41 24 38 11 -10 -7
-29 -7 -46 0 -57 19 -31 30 -24 46 29 9 29 33 101 54 160 35 101 37 108 21
126 -13 14 -14 21 -5 30 18 18 -8 14 -67 -11z"/>
<path d="M980 1124 c-19 -7 -28 -13 -19 -13 9 -1 22 -8 30 -17 11 -14 14 -13
25 8 24 42 20 44 -36 22z"/>
<path d="M873 1088 c-29 -11 -50 -24 -47 -29 6 -10 73 16 94 36 18 19 17 18
-47 -7z"/>
<path d="M797 999 c-15 -11 -27 -25 -27 -31 0 -6 6 -5 15 2 26 21 30 2 5 -25
-19 -20 -21 -27 -10 -40 9 -11 16 -12 25 -5 26 22 23 -8 -8 -67 -36 -70 -79
-123 -84 -106 -5 15 22 68 49 95 15 15 18 25 12 36 -15 23 -27 18 -51 -24 -38
-65 -46 -109 -27 -139 9 -14 24 -25 34 -25 34 0 101 93 129 182 10 31 10 41
-4 62 -11 16 -13 26 -6 31 17 10 13 40 -7 59 -18 15 -21 15 -45 -5z"/>
<path d="M1392 990 c-7 -12 -8 -29 -2 -52 20 -77 18 -119 -7 -172 -39 -82 -35
-77 -142 -198 -31 -35 -36 -37 -44 -22 -9 16 -11 26 -16 72 0 7 -10 20 -20 29
-15 12 -17 21 -11 34 7 12 6 19 -2 21 -6 2 -8 9 -4 16 9 15 36 4 36 -15 0 -9
5 -11 12 -7 7 5 30 9 50 9 32 1 38 -2 38 -19 1 -20 1 -20 11 -3 15 25 2 94
-14 78 -18 -18 -27 -13 -27 14 0 22 4 25 31 23 28 -2 54 -18 30 -18 -6 0 -11
-7 -11 -15 0 -18 29 -20 31 -2 2 22 -3 42 -14 55 -8 11 -12 11 -18 0 -7 -10
-9 -9 -9 4 0 10 -5 17 -12 15 -6 -1 -12 9 -12 23 -1 17 -6 24 -17 22 -9 -1
-28 9 -44 24 -22 20 -30 23 -36 12 -5 -7 -7 -19 -4 -26 3 -7 -6 -38 -20 -68
-24 -53 -26 -81 -10 -156 4 -21 2 -28 -10 -28 -9 0 -18 -12 -22 -31 -4 -23
-18 -38 -49 -58 -26 -15 -44 -33 -44 -44 0 -17 2 -17 15 -3 11 11 32 14 73 12
31 -2 63 1 70 7 7 5 15 7 18 4 10 -10 -6 -27 -26 -27 -11 0 -38 -10 -60 -21
-44 -23 -37 -23 -244 -3 -27 3 -72 16 -100 29 -28 13 -64 27 -79 31 -33 8
-133 96 -142 125 -9 28 -25 13 -25 -24 1 -25 10 -40 43 -67 163 -138 350 -189
517 -142 82 23 201 92 257 149 77 80 133 227 133 354 0 27 -6 40 -28 56 -27
20 -29 20 -40 3z"/>
<path d="M460 936 c-85 -29 -116 -46 -179 -97 l-53 -41 21 -21 21 -21 32 30
c47 44 108 88 114 82 2 -3 -20 -68 -49 -144 -77 -198 -100 -272 -93 -298 15
-62 32 -30 116 225 76 231 99 283 118 264 3 -3 -13 -62 -37 -131 -41 -120 -42
-127 -25 -145 22 -25 34 -24 34 3 0 11 16 70 35 131 34 105 35 110 18 129 -15
17 -15 21 -3 28 8 6 19 10 23 10 5 0 5 5 2 10 -9 14 -21 12 -95 -14z"/>
<path d="M617 927 c-29 -24 -60 -102 -71 -177 -6 -40 -4 -49 18 -69 15 -14 31
-21 41 -17 17 6 75 120 75 147 0 9 14 33 30 54 30 38 38 69 20 80 -5 3 -12 -6
-16 -20 l-6 -25 -20 25 c-24 30 -35 31 -71 2z m63 -31 c0 -27 -18 -63 -36 -70
-27 -10 -28 0 -3 43 23 42 39 52 39 27z m-43 -117 c-8 -19 -22 -43 -31 -54
-15 -19 -15 -19 -16 10 0 49 11 74 34 77 29 5 29 5 13 -33z"/>
</g>
</svg>
